<?xml version="1.0" encoding="UTF-8" standalone="no"?>
<!-- Created with Inkscape (http://www.inkscape.org/) -->

<svg
   width="391.41205mm"
   height="45.557457mm"
   viewBox="0 0 391.41205 45.557457"
   version="1.1"
   id="svg1"
   xml:space="preserve"
   inkscape:version="1.4.3 (0d15f75, 2025-12-25)"
   sodipodi:docname="illustration-1.svg"
   xmlns:inkscape="http://www.inkscape.org/namespaces/inkscape"
   xmlns:sodipodi="http://sodipodi.sourceforge.net/DTD/sodipodi-0.dtd"
   xmlns="http://www.w3.org/2000/svg"
   xmlns:svg="http://www.w3.org/2000/svg"><sodipodi:namedview
     id="namedview1"
     pagecolor="#ffffff"
     bordercolor="#000000"
     borderopacity="0.25"
     inkscape:showpageshadow="2"
     inkscape:pageopacity="0.0"
     inkscape:pagecheckerboard="0"
     inkscape:deskcolor="#d1d1d1"
     inkscape:document-units="mm"
     inkscape:zoom="0.51709916"
     inkscape:cx="679.75356"
     inkscape:cy="148.90761"
     inkscape:window-width="1406"
     inkscape:window-height="847"
     inkscape:window-x="0"
     inkscape:window-y="25"
     inkscape:window-maximized="0"
     inkscape:current-layer="layer1" /><defs
     id="defs1" /><g
     inkscape:label="Layer 1"
     inkscape:groupmode="layer"
     id="layer1"
     transform="translate(85.74716,-110.34073)"><path
       style="fill:#000000"
       d="m -51.432743,155.71146 c -0.282832,-0.28283 -0.203379,-2.57405 0.123258,-3.55444 0.164807,-0.49465 0.700588,-1.32111 1.190625,-1.83657 0.490038,-0.51546 0.890978,-1.14672 0.890978,-1.40279 0,-0.77554 1.153784,-2.55057 1.659318,-2.55277 0.25806,-0.001 0.608978,-0.32903 0.78085,-0.72964 0.538772,-1.25582 1.302134,-2.21041 1.970959,-2.4647 0.38859,-0.14774 0.845469,-0.69887 1.149923,-1.38713 0.277839,-0.6281 0.747607,-1.36142 1.04393,-1.62958 0.296323,-0.26817 0.53877,-0.60858 0.53877,-0.75647 0,-0.14789 0.189325,-0.47809 0.420722,-0.73378 l 0.420723,-0.4649 -0.206845,-0.61427 c -0.113765,-0.33785 -0.176424,-0.82334 -0.139242,-1.07887 0.03718,-0.25552 -0.180761,-0.81339 -0.484318,-1.23969 l -0.551922,-0.7751 0.167618,-1.04823 0.167619,-1.04823 -0.524631,-0.16651 -0.52463,-0.16651 -0.455351,-1.44768 c -0.250444,-0.79622 -0.563402,-1.51446 -0.695464,-1.59608 -0.132062,-0.0816 -0.240113,-0.49153 -0.240113,-0.91092 0,-0.41938 -0.119062,-0.8361 -0.264583,-0.92604 -0.145521,-0.0899 -0.264583,-0.39756 -0.264583,-0.68362 0,-0.30861 -0.263815,-0.6204 -0.648786,-0.76677 -0.356832,-0.13566 -0.83614,-0.60897 -1.065128,-1.05178 -0.228988,-0.44282 -0.594825,-0.80512 -0.812971,-0.80512 -0.218146,0 -0.518122,-0.31955 -0.666612,-0.71011 l -0.269983,-0.7101 0.312949,-0.81125 c 0.172122,-0.44619 0.547876,-1.01961 0.83501,-1.27427 l 0.52206,-0.46302 h 1.587299 1.587298 l 1.584181,0.84436 1.58418,0.84436 0.260393,0.67699 c 0.143216,0.37235 0.289574,2.34387 0.32524,4.38117 l 0.06485,3.70416 0.442719,0.84676 c 0.243496,0.46572 0.446506,1.23962 0.451134,1.71979 0.0096,0.99326 0.490161,1.76809 0.991853,1.59912 0.186346,-0.0628 0.62022,-0.66852 0.964165,-1.34614 0.61553,-1.21267 3.431479,-4.85216 3.887476,-5.02439 0.128429,-0.0485 0.233508,-0.22861 0.233508,-0.40022 0,-0.17162 0.312455,-0.54865 0.694346,-0.83785 0.38189,-0.2892 0.770449,-0.58535 0.863465,-0.65811 0.09302,-0.0728 0.465169,-0.72265 0.827008,-1.44419 0.361839,-0.72155 1.085938,-1.76335 1.609109,-2.31511 l 0.951221,-1.0032 h 0.852111 c 0.468661,0 1.092861,0.12885 1.38711,0.28632 l 0.535,0.28633 -0.162605,0.70586 c -0.08943,0.38823 -0.426658,1.53212 -0.749388,2.54198 l -0.586783,1.83611 -1.124865,1.0743 c -0.618676,0.59087 -1.125341,1.19662 -1.125922,1.34612 -5.82e-4,0.1495 -0.328479,0.57759 -0.728661,0.95133 -1.146733,1.07094 -3.62076,3.95739 -3.806862,4.44147 -0.09286,0.24155 -0.350984,0.59034 -0.573604,0.7751 -0.22262,0.18476 -0.912353,1.13313 -1.532739,2.10748 -0.620386,0.97436 -1.456143,2.12875 -1.857237,2.56531 -0.401094,0.43656 -1.084698,1.50812 -1.51912,2.38125 -0.434422,0.87312 -1.334064,2.24234 -1.999206,3.04271 -0.665141,0.80036 -1.438817,1.75286 -1.719279,2.11666 -0.280463,0.36381 -0.817019,1.03584 -1.192349,1.49341 -0.375329,0.45757 -0.682417,0.95048 -0.682417,1.09537 0,0.63667 -2.482925,3.55105 -3.755433,4.40801 -1.291971,0.87006 -2.522497,1.18917 -2.947344,0.76432 z M 165.06574,145.67865 c -0.19154,-0.23079 -0.86474,-0.6624 -1.496,-0.95913 -1.24339,-0.58446 -1.80611,-1.31779 -1.47087,-1.91683 0.11639,-0.20798 0.86557,-1.09688 1.66483,-1.97534 0.79927,-0.87846 1.98899,-2.26167 2.64384,-3.0738 0.65484,-0.81214 1.59453,-1.91505 2.08819,-2.45091 0.49367,-0.53587 1.13579,-1.43133 1.42694,-1.98991 0.29115,-0.55859 0.73857,-1.14626 0.99426,-1.30594 0.25569,-0.15969 0.40893,-0.43616 0.34053,-0.6144 -0.0684,-0.17824 0.12208,-0.80712 0.42328,-1.39751 0.66945,-1.31224 0.69841,-2.11353 0.0846,-2.34124 -0.65402,-0.24262 -1.37106,-1.10386 -1.86852,-2.2443 -0.2345,-0.5376 -0.66937,-1.10752 -0.96638,-1.26647 -0.50078,-0.26801 -1.06626,-1.01986 -1.95636,-2.60113 -0.19771,-0.35124 -0.76326,-1.06671 -1.25677,-1.58992 -0.4935,-0.52321 -0.89728,-1.12042 -0.89728,-1.32712 0,-0.20671 -0.41672,-0.83709 -0.92605,-1.40085 -1.38455,-1.53254 -1.15058,-2.61099 0.56647,-2.61099 0.47163,0 0.9311,-0.11907 1.02103,-0.26459 0.27538,-0.44557 0.92041,-0.29613 1.53339,0.35525 0.3208,0.34091 1.29766,1.4882 2.17078,2.54952 0.87313,1.06133 1.88516,2.25625 2.24896,2.65538 0.3638,0.39913 0.93896,1.26285 1.27814,1.91937 0.33917,0.65652 0.9477,1.51081 1.35229,1.89843 l 0.73561,0.70476 0.68647,-0.17229 0.68647,-0.1723 -0.13449,-0.70187 -0.1345,-0.70187 1.20459,-1.36561 c 0.66252,-0.75109 1.20459,-1.596 1.20459,-1.87758 0,-0.66641 0.74314,-2.18472 1.36381,-2.78639 0.26855,-0.26033 0.48827,-0.71273 0.48827,-1.00533 0,-0.54455 0.711,-2.12006 1.06403,-2.3578 0.10805,-0.0728 0.41909,-0.60854 0.6912,-1.19063 l 0.49474,-1.05833 1.94371,-0.23815 1.94371,-0.23814 0.23455,0.37044 c 0.3611,0.57033 0.28591,1.46035 -0.15423,1.82564 -0.21828,0.18116 -0.39688,0.56143 -0.39688,0.84505 0,0.28362 -0.17975,0.69542 -0.39944,0.91511 -0.21969,0.21969 -0.37745,0.7172 -0.35058,1.10558 0.0481,0.69479 -1.69074,4.6059 -2.35144,5.2891 -0.18597,0.19229 -0.33812,0.51568 -0.33812,0.71863 0,0.52271 -0.84882,2.23903 -1.10734,2.23903 -0.11857,0 -0.21558,0.11293 -0.21558,0.25095 0,0.13803 -0.29765,0.57213 -0.66146,0.96468 -0.3638,0.39255 -0.66145,0.86271 -0.66145,1.04481 0,0.1821 -0.35719,1.05101 -0.79375,1.9309 -0.43657,0.8799 -0.79375,1.65965 -0.79375,1.73277 0,0.35968 -2.007,3.51285 -2.42783,3.81433 -0.26542,0.19015 -0.48259,0.46438 -0.48259,0.60939 0,0.14502 -0.53895,1.08928 -1.19766,2.09837 -0.65872,1.00909 -1.2745,2.04455 -1.36841,2.30102 -0.0939,0.25648 -0.80511,1.11221 -1.58046,1.90163 -0.77535,0.78943 -1.40972,1.5172 -1.40972,1.61727 0,0.15304 -0.95098,1.47495 -1.81314,2.52034 -0.12757,0.15468 -0.3713,0.54164 -0.54163,0.85989 l -0.30968,0.57865 h -0.88434 c -0.48638,0 -1.04105,-0.18883 -1.23259,-0.41962 z m 83.16121,-4.15503 c -0.76562,-0.46647 -1.45375,-1.04258 -1.52918,-1.28024 -0.0754,-0.23765 -0.46104,-0.49818 -0.85692,-0.57895 -0.84647,-0.17271 -4.02707,-3.10511 -4.02707,-3.71282 0,-0.22993 -0.23671,-0.54474 -0.52604,-0.69958 -0.28932,-0.15485 -0.59988,-0.57575 -0.69014,-0.93535 l -0.1641,-0.65383 h -0.51788 c -0.66732,0 -1.50125,-0.43333 -2.34508,-1.21858 -0.36926,-0.34362 -1.09119,-0.83508 -1.6043,-1.09215 -0.51311,-0.25706 -1.3892,-0.97727 -1.94687,-1.60047 l -1.01394,-1.13307 0.28546,-0.62651 c 0.17098,-0.37528 0.69041,-0.757 1.29532,-0.95193 0.55543,-0.17898 1.14107,-0.42891 1.30143,-0.55541 0.16836,-0.13281 0.65015,-0.10498 1.14019,0.0658 l 0.84863,0.29584 0.61054,-0.57358 0.61055,-0.57358 0.17876,-1.74483 0.17877,-1.74482 -0.73888,-0.70952 c -1.01838,-0.97792 -1.5749,-1.1299 -2.54895,-0.69609 -0.45967,0.20472 -1.24466,0.44469 -1.74444,0.53327 -0.49977,0.0886 -1.12485,0.35668 -1.38906,0.59579 l -0.48038,0.43474 v 0.99588 c 0,0.54774 -0.20836,1.36272 -0.46302,1.81108 l -0.46302,0.81519 0.46302,0.81519 c 0.51654,0.90942 0.5886,2.0577 0.21163,3.37215 -0.13827,0.48211 -0.2734,1.87464 -0.30028,3.09452 l -0.0489,2.21796 -0.55962,0.50603 c -0.53732,0.48587 -2.80159,1.37123 -3.50686,1.37123 -0.57586,0 -1.41838,-1.11954 -1.41838,-1.88475 0,-0.39965 0.12762,-1.06181 0.28359,-1.47146 0.15597,-0.40966 0.32004,-1.89356 0.3646,-3.29756 0.0445,-1.404 0.17918,-2.71157 0.29916,-2.9057 0.11998,-0.19414 0.2372,-1.14504 0.26049,-2.11312 l 0.0423,-1.76014 0.43324,-0.61855 c 0.23829,-0.3402 0.43325,-1.08658 0.43325,-1.65862 0,-1.05291 1.01103,-3.55352 1.64117,-4.05916 0.61196,-0.49105 3.22975,-1.08816 4.13504,-0.9432 0.48478,0.0776 1.1437,7.7e-4 1.46427,-0.17079 l 0.58285,-0.31193 1.04927,0.25539 c 3.63214,0.88408 5.92404,2.29022 5.93818,3.64322 0.003,0.30965 0.20361,1.02402 0.44527,1.5875 0.24166,0.56347 0.51678,1.44122 0.61138,1.95054 l 0.17199,0.92604 -0.83088,1.32373 c -1.2996,2.07047 -1.58723,3.70938 -0.73611,4.1944 0.21857,0.12455 0.5905,0.45198 0.8265,0.7276 0.236,0.27563 0.55145,0.50339 0.70102,0.50613 0.14956,0.003 1.14205,0.82423 2.20553,1.82552 l 1.93361,1.82054 0.84452,0.16122 c 1.09673,0.20937 3.02054,1.74805 3.64702,2.91691 l 0.49256,0.91902 -0.91993,0.97541 c -0.50596,0.53648 -0.91993,1.07508 -0.91993,1.19689 0,0.26921 -0.99389,0.91705 -1.71979,1.12099 l -0.52917,0.14867 z m -333.58575,0.31657 c -0.09835,-0.15913 -0.225962,-0.95161 -0.283587,-1.76106 l -0.104773,-1.47173 0.385221,-0.58792 c 0.531234,-0.81077 2.929828,-1.23939 6.575527,-1.17503 l 1.530011,0.027 -1.065852,-1.40586 c -0.586219,-0.77323 -1.066364,-1.53568 -1.066991,-1.69434 -0.0018,-0.46154 1.563554,-3.46427 1.99086,-3.8189 0.214089,-0.17768 0.389252,-0.43759 0.389252,-0.57758 0,-0.13999 0.528467,-0.92909 1.174372,-1.75354 0.645905,-0.82446 1.298613,-1.82857 1.450464,-2.23136 0.15185,-0.40279 0.546117,-0.83841 0.876148,-0.96803 0.76148,-0.29909 1.264332,-0.91791 1.898253,-2.33604 0.276835,-0.6193 0.646396,-1.24473 0.821248,-1.38984 0.174851,-0.14512 0.9006,-1.21253 1.612776,-2.37203 l 1.294864,-2.10818 0.554305,-0.008 c 0.304868,-0.004 0.755319,0.21441 1.001003,0.48589 l 0.446697,0.49359 -0.172348,1.16006 c -0.09479,0.63802 -0.364652,1.4577 -0.599691,1.8215 -0.235039,0.36381 -0.620884,1.07818 -0.857434,1.5875 -0.236549,0.50933 -0.685029,1.15286 -0.996623,1.43007 -0.311594,0.27722 -0.566534,0.71457 -0.566534,0.97189 0,0.25732 -0.281365,0.80442 -0.625255,1.21577 -0.34389,0.41134 -0.70686,1.00873 -0.806599,1.32752 -0.09974,0.31879 -0.830406,1.55493 -1.623704,2.74698 -0.793297,1.19205 -1.442359,2.21686 -1.442359,2.27736 0,0.0605 -0.407001,0.74625 -0.904446,1.52388 -0.497446,0.77763 -1.094782,1.78194 -1.327413,2.2318 l -0.422965,0.81793 1.261266,-0.16503 c 0.693697,-0.0908 1.558923,-0.31192 1.922725,-0.49147 0.795939,-0.39282 3.694832,-0.72271 6.165375,-0.70161 l 1.79975,0.0154 0.146787,-0.38252 c 0.08073,-0.21039 0.426102,-0.38252 0.767488,-0.38252 0.341385,0 0.894194,-0.10666 1.228463,-0.23703 0.334269,-0.13037 1.143543,-0.38009 1.798387,-0.55495 0.654844,-0.17486 1.373127,-0.41025 1.596184,-0.52308 0.223058,-0.11283 0.790674,-0.28974 1.26137,-0.39312 l 0.85581,-0.18797 0.392276,-0.75858 c 0.215752,-0.41721 0.392276,-1.29163 0.392276,-1.94313 v -1.18457 l -0.697877,-0.54895 -0.697877,-0.54895 -2.823925,0.15417 -2.823925,0.15417 -0.347173,-0.41831 c -0.190945,-0.23008 -0.406203,-0.94203 -0.478351,-1.58213 l -0.131177,-1.1638 0.626715,-0.39216 c 0.344694,-0.21568 1.434129,-0.46168 2.420968,-0.54666 0.98684,-0.085 2.055129,-0.33723 2.373976,-0.56056 0.318847,-0.22333 0.784807,-0.40606 1.035466,-0.40606 0.250659,0 0.998427,-0.56554 1.661707,-1.25677 l 1.205964,-1.25677 -0.06693,-1.71979 -0.06693,-1.71979 -0.926041,-0.43809 c -1.337926,-0.63295 -4.245963,-1.2817 -5.745198,-1.2817 -0.710995,0 -1.420252,-0.12753 -1.576125,-0.28341 l -0.283406,-0.2834 -2.037614,0.2834 c -1.120688,0.15588 -2.609733,0.28341 -3.308989,0.28341 -0.755283,0 -1.393802,0.14751 -1.57297,0.3634 -0.342613,0.41282 -2.64955,0.78909 -3.302288,0.53861 -0.508499,-0.19513 -1.329126,-2.79795 -1.104894,-3.50444 0.08534,-0.26888 0.460107,-0.7756 0.832817,-1.12604 l 0.677655,-0.63716 5.546844,-0.0854 5.546843,-0.0854 1.730834,0.55917 c 0.951959,0.30755 1.937094,0.49371 2.189191,0.4137 0.283586,-0.09 0.696178,0.10768 1.082073,0.51844 0.343045,0.36516 0.890784,0.66392 1.217198,0.66392 0.668895,0 3.860018,2.63107 4.277969,3.52717 0.147213,0.31563 0.417306,1.07369 0.600206,1.68458 l 0.332545,1.1107 -0.281185,0.74138 c -0.154652,0.40776 -0.340498,1.2591 -0.412991,1.89186 -0.140907,1.22994 -1.010759,2.42139 -1.767795,2.42139 -0.571934,0 -1.317804,0.8283 -1.317804,1.46345 0,0.27265 0.366446,0.87381 0.814324,1.3359 1.010445,1.04252 1.307298,2.2949 1.117704,4.71544 l -0.147092,1.87792 -0.683043,0.73351 c -0.375674,0.40343 -1.135886,0.86918 -1.68936,1.03501 -0.553474,0.16582 -1.138544,0.46082 -1.300155,0.65555 -0.161611,0.19473 -0.613315,0.35405 -1.003788,0.35405 -0.390472,0 -1.109477,0.29477 -1.597789,0.65503 -0.488312,0.36027 -1.315115,0.7925 -1.837341,0.96052 -0.522225,0.16803 -1.116649,0.43881 -1.320941,0.60175 -0.204291,0.16293 -1.335385,0.3033 -2.513541,0.31193 -1.293866,0.009 -2.641239,0.19208 -3.402603,0.46115 -0.693276,0.245 -1.943432,0.51217 -2.778125,0.59371 -0.834693,0.0815 -1.993874,0.36896 -2.575958,0.6387 -0.63789,0.29562 -2.582156,0.66812 -4.894079,0.93767 -2.10966,0.24597 -4.036598,0.55471 -4.282085,0.68609 -0.618435,0.33097 -1.999912,0.29952 -2.216212,-0.0505 z m 295.81946,-3.67942 c -0.0899,-0.14552 -0.61874,-0.26458 -1.17511,-0.26458 h -1.01159 l -1.11912,-1.11912 c -0.61552,-0.61552 -1.22456,-1.35966 -1.35342,-1.65365 -0.12886,-0.29399 -0.33971,-0.71312 -0.46857,-0.9314 -0.12886,-0.21828 -0.35337,-0.91281 -0.49893,-1.54341 l -0.26464,-1.14653 0.49829,-1.36327 c 0.27407,-0.7498 0.4983,-1.6243 0.4983,-1.94333 v -0.58005 l 2.25269,-2.26795 c 1.23898,-1.24738 2.3766,-2.26796 2.52806,-2.26796 0.15145,0 0.83111,-0.25317 1.51036,-0.5626 l 1.23499,-0.56261 1.77972,0.14921 c 2.71432,0.22756 3.49594,0.76908 3.22745,2.23605 l -0.15797,0.86317 1.20858,-0.0457 c 1.38222,-0.0523 1.79797,0.21636 2.68958,1.73787 l 0.63255,1.07942 -0.0833,1.19063 c -0.0458,0.65484 -0.36708,2.12605 -0.71395,3.26935 l -0.63067,2.07872 -1.27142,1.29471 -1.27142,1.29472 h -0.85252 c -0.46888,0 -1.14509,0.20492 -1.50267,0.45538 l -0.65016,0.45539 -1.63547,0.008 c -0.89952,0.004 -1.72484,0.0969 -1.83407,0.20607 -0.28905,0.28883 -1.37456,0.24297 -1.5656,-0.0661 z m 5.42315,-4.34306 1.18981,-0.55883 0.42488,-0.89982 c 0.49574,-1.0499 0.43196,-2.88997 -0.13643,-3.93627 -0.21305,-0.39218 -0.45732,-1.14827 -0.54282,-1.6802 l -0.15546,-0.96715 -1.24948,-0.1104 c -0.68722,-0.0607 -1.44269,-0.19798 -1.67883,-0.30502 l -0.42935,-0.1946 -1.46288,1.41686 c -1.48603,1.43929 -2.30863,2.90279 -2.30863,4.10734 0,0.36648 0.26096,1.18883 0.57991,1.82747 l 0.57991,1.16115 0.65922,0.16546 c 0.36258,0.091 0.96023,0.32161 1.32811,0.51247 0.7551,0.39175 1.48165,0.26957 3.20204,-0.53846 z m -204.187942,3.52573 c -0.377422,-0.42359 -0.846884,-0.77017 -1.04325,-0.77017 -0.196366,0 -0.581058,-0.36839 -0.8548722,-0.81864 l -0.4978433,-0.81863 -0.03843,-3.2024 c -0.022065,-1.83871 -0.1597145,-3.34854 -0.3232449,-3.54558 -0.156648,-0.18875 -0.2120632,-0.61171 -0.1231448,-0.9399 0.088918,-0.3282 0.023978,-1.51202 -0.1443109,-2.63071 l -0.3059807,-2.03398 -1.7426909,-0.0479 c -2.7303795,-0.075 -3.9093283,-0.003 -4.6629384,0.28312 l -0.6976545,0.26524 -1.16761154,-0.51649 c -0.6421864,-0.28407 -1.16834496,-0.67201 -1.16924156,-0.86209 -8.965e-4,-0.19009 -0.1743402,-0.67671 -0.3854304,-1.0814 -0.4604921,-0.88281 -0.2867259,-1.47374 0.48239016,-1.64045 0.3113707,-0.0675 2.17347234,-0.23066 4.13800354,-0.36259 l 3.571875,-0.23988 0.802355,0.36772 0.8023551,0.36772 4.6216033,-0.069 4.621603,-0.069 0.661459,0.37034 c 1.318757,0.73835 1.35441,1.22428 0.183611,2.5025 l -0.874721,0.95497 -2.161436,-0.16668 -2.161436,-0.16668 -0.151282,0.39424 c -0.0832,0.21682 0.09244,1.01256 0.390325,1.76829 0.309422,0.78502 0.541605,1.98701 0.541605,2.80387 0,0.78639 0.106737,1.49576 0.237194,1.57639 0.343253,0.21214 0.865627,3.4024 0.928933,5.67322 l 0.05442,1.95213 -0.411837,0.50832 c -0.22651,0.27958 -0.866859,0.6109 -1.422997,0.73627 l -1.011161,0.22794 z m 35.067718,-0.51147 c -1.079535,-0.18857 -1.799803,-0.66754 -1.799803,-1.19684 0,-0.1893 -0.318604,-0.72281 -0.70801,-1.1856 l -0.708009,-0.84142 0.311134,-0.4982 c 0.171124,-0.27402 0.311135,-1.13621 0.311135,-1.916 v -1.41779 L 43.631,129.2883 l -0.539034,-0.48782 -1.963207,0.32988 -1.963207,0.32988 -0.505085,-0.27032 -0.505085,-0.27031 -0.762987,0.24381 c -0.419643,0.13409 -1.291419,0.33812 -1.93728,0.45339 l -1.174294,0.20959 -0.238248,0.92131 -0.238249,0.92131 0.288063,0.96147 c 0.35995,1.20141 0.37615,3.59253 0.02581,3.80905 -0.509429,0.31485 -2.647796,0.29776 -3.420971,-0.0273 -0.903769,-0.38001 -2.352316,-2.2423 -2.285451,-2.93824 0.02497,-0.25991 0.253307,-1.14965 0.507411,-1.97719 l 0.462007,-1.50463 -0.547433,-1.07305 c -0.301089,-0.59019 -0.523706,-1.40139 -0.494705,-1.80267 0.029,-0.40128 -0.086,-0.98575 -0.255565,-1.29881 l -0.308294,-0.56921 0.28773,-0.82538 0.287731,-0.82539 -0.32313,-0.38934 -0.323129,-0.38935 0.183875,-1.47168 0.183875,-1.47169 0.706757,-0.2726 c 0.940119,-0.36262 2.724228,-0.1084 3.129569,0.44594 0.50485,0.69042 1.232347,3.2257 1.056849,3.68304 -0.08664,0.22577 -0.04475,0.70712 0.09309,1.06966 l 0.250612,0.65916 h 0.84766 c 0.466212,0 1.247854,-0.14471 1.736981,-0.32158 l 0.889321,-0.32158 0.477565,0.29824 0.477564,0.29824 1.293872,-0.27595 c 0.711629,-0.15178 1.55767,-0.44881 1.88009,-0.66006 0.331803,-0.21741 0.820468,-0.30976 1.125972,-0.2128 0.296864,0.0942 0.65272,0.1015 0.790789,0.0162 0.28878,-0.17848 -0.405564,-2.02461 -0.871349,-2.31676 -0.432667,-0.27137 -0.371207,-2.4234 0.0849,-2.97298 l 0.385897,-0.46498 1.035168,0.13884 1.035167,0.13885 0.906651,0.87876 c 0.926705,0.8982 1.675178,2.13831 1.675178,2.77553 0,0.19593 0.09514,0.35623 0.211431,0.35623 0.451701,0 0.911071,1.90317 1.660428,6.87916 0.142446,0.94589 0.374199,2.13651 0.515007,2.64584 0.330605,1.19584 0.330589,3.07596 -3.1e-5,3.69373 -0.352695,0.65901 -1.522952,1.00455 -2.703699,0.7983 z m 55.708534,-0.095 c -1.32037,-0.3567 -2.11025,-1.02076 -2.28183,-1.91833 l -0.12705,-0.66462 0.65191,-0.77476 0.65192,-0.77476 h 2.21729 2.21729 l 1.04624,-0.54533 1.04623,-0.54532 0.2699,-0.77426 0.26992,-0.77426 -0.40683,-1.19396 c -0.22375,-0.65667 -0.51309,-1.19395 -0.64298,-1.19395 -0.12989,0 -0.41028,-0.41672 -0.62309,-0.92604 -0.21281,-0.50933 -0.48577,-0.92605 -0.60658,-0.92605 -0.1208,0 -0.6329,-0.3994 -1.13798,-0.88756 -0.50508,-0.48816 -1.38395,-1.0537 -1.95305,-1.25677 -0.5691,-0.20306 -1.72996,-1.05304 -2.57969,-1.88883 l -1.544958,-1.51963 v -1.29101 c 0,-0.71405 0.235494,-1.82339 0.526941,-2.48225 l 0.526941,-1.19124 0.729826,-0.26069 c 1.95885,-0.6997 2.73158,-0.86329 4.05591,-0.85865 l 1.43642,0.005 1.27373,0.79977 1.27373,0.79976 -0.0831,0.58427 -0.0831,0.58427 -1.19063,0.15932 c -1.64462,0.22006 -3.20176,0.81263 -3.53384,1.34481 l -0.27818,0.4458 0.33415,0.61254 c 0.38365,0.70326 2.65711,2.40878 4.84491,3.63458 0.82463,0.46204 1.69058,1.13195 1.92433,1.4887 0.23375,0.35674 0.60756,0.64863 0.83069,0.64863 1.09693,0 2.49253,2.64001 2.49253,4.71506 0,2.06504 -1.68848,4.46547 -4.46769,6.35149 l -0.9197,0.62413 -1.38194,-0.17266 -1.38192,-0.17266 -0.17333,0.28044 c -0.2154,0.34853 -1.77043,0.30752 -3.22334,-0.085 z m -12.268835,-1.11864 c -0.220618,-0.0651 -0.67408,-0.85915 -1.007694,-1.76454 -0.333614,-0.90539 -0.700844,-1.82314 -0.816068,-2.03944 -0.38801,-0.72839 -3.05276,-2.51261 -6.638657,-4.44502 -1.633529,-0.88029 -2.103439,-1.26068 -2.112615,-1.71014 -0.0079,-0.38818 2.072331,-2.19846 3.667407,-3.19145 0.891114,-0.55475 1.620208,-1.11771 1.620208,-1.25102 0,-0.13331 -0.657432,-0.89981 -1.460961,-1.70334 l -1.46096,-1.46096 h -0.879639 c -1.196078,0 -2.529521,0.70954 -2.832866,1.5074 l -0.250079,0.65775 0.25836,2.55545 c 0.364825,3.60848 0.529819,4.55651 0.958232,5.50584 0.825758,1.82983 0.247448,3.30701 -1.534509,3.91962 -1.152489,0.3962 -1.252127,0.33878 -2.05002,-1.18148 l -0.624887,-1.19062 -0.0645,-1.85209 c -0.07094,-2.03682 -0.364548,-3.83022 -1.072519,-6.55105 l -0.46539,-1.78854 0.465192,-1.29366 0.465192,-1.29365 -0.174452,-0.92992 -0.174453,-0.92991 0.592526,-0.31711 0.592526,-0.31711 0.954,0.28177 c 1.762777,0.52064 2.481505,0.52529 3.446938,0.0223 l 0.946646,-0.49317 2.364098,0.16703 2.364098,0.16704 1.505747,1.4786 c 2.275316,2.23429 2.610406,2.93611 2.285039,4.78588 -0.388156,2.20675 -0.560893,2.85336 -0.935925,3.50347 l -0.41843,0.72533 0.834158,0.86217 c 1.313141,1.35722 2.452256,2.7619 2.452256,3.02396 0,0.13192 0.238125,0.70692 0.529167,1.27778 0.291042,0.57086 0.529167,1.34719 0.529167,1.72517 0,0.37798 0.174807,0.91835 0.38846,1.20083 0.489769,0.64753 0.512789,1.5502 0.04934,1.93483 -0.415394,0.34474 -1.715886,0.57261 -2.294134,0.40196 z m -26.796446,-0.66028 c -0.261059,-0.15191 -0.990339,-0.31067 -1.620622,-0.35281 -1.305568,-0.0873 -1.741184,-0.28873 -1.741184,-0.80521 0,-0.19841 -0.446485,-0.5034 -0.992188,-0.67776 -0.545703,-0.17436 -1.305839,-0.60939 -1.68919,-0.96674 l -0.697003,-0.64973 0.286877,-0.76002 0.286878,-0.76003 -0.714354,-0.56191 c -0.392894,-0.30905 -0.714354,-0.77701 -0.714354,-1.0399 0,-0.2629 -0.309083,-1.15312 -0.686852,-1.97828 l -0.686853,-1.50028 0.157449,-0.62733 c 0.09372,-0.37342 -0.02711,-0.94889 -0.298538,-1.42184 l -0.455987,-0.79451 0.491118,-0.54268 c 0.682553,-0.75421 1.286662,-0.89313 2.482971,-0.571 1.470489,0.39596 1.920012,1.02812 2.171168,3.05329 0.271241,2.18713 1.359568,4.39766 2.751897,5.58944 l 1.048043,0.89708 h 0.858117 c 1.144395,0 2.385731,-1.05853 2.557439,-2.18081 0.169247,-1.1062 -0.269939,-3.91057 -0.693851,-4.43051 -1.170482,-1.43562 -1.174913,-2.5736 -0.01539,-3.95162 l 0.685056,-0.81414 h 0.861515 c 1.01943,0 1.737279,0.68282 1.737279,1.65251 0,0.37663 0.416718,1.4703 0.926041,2.43036 l 0.926042,1.74557 v 3.00959 3.0096 l -0.463018,0.55956 c -0.254661,0.30775 -0.998802,0.82696 -1.653646,1.15379 -0.663115,0.33097 -1.339096,0.90732 -1.525733,1.30087 l -0.335109,0.70662 -1.33156,0.28557 c -1.558654,0.33427 -1.325044,0.33509 -1.912458,-0.007 z m 239.657991,-0.65336 c -0.72761,-0.20304 -1.4649,-0.31782 -1.63842,-0.25507 -0.38877,0.14058 -7.12025,-0.31744 -10.00325,-0.68064 -3.28425,-0.41375 -4.38921,-0.47907 -9.93423,-0.58733 -2.84446,-0.0555 -5.4043,-0.22234 -5.68855,-0.3707 -0.28424,-0.14836 -2.00509,-0.33647 -3.8241,-0.41804 -1.81901,-0.0816 -4.72287,-0.216 -6.45304,-0.29874 l -3.14574,-0.15045 -0.88915,-0.54952 -0.88915,-0.54952 v -0.94543 -0.94543 l 1.06948,-1.01737 1.06947,-1.01737 h 0.79575 c 0.43766,0 1.13917,0.17759 1.5589,0.39465 l 0.76316,0.39464 1.59539,-0.16675 1.5954,-0.16675 0.66266,0.43419 0.66266,0.43419 1.19113,-0.5787 1.19114,-0.5787 0.60316,0.2945 c 0.33174,0.16198 1.79279,0.37188 3.24677,0.46644 1.45399,0.0946 2.79433,0.29702 2.97854,0.4499 l 0.33492,0.27797 1.58006,-0.31086 c 0.9806,-0.19292 1.75779,-0.21987 2.04854,-0.071 0.25941,0.13279 1.27408,0.15261 2.27359,0.0444 1.87307,-0.20277 3.56767,0.023 3.87234,0.516 0.0968,0.15668 0.76402,0.2689 1.48264,0.24939 3.11151,-0.0845 8.90467,0.24938 9.18463,0.52933 0.36502,0.36502 2.29569,0.38993 3.21229,0.0414 l 0.67373,-0.25615 0.69637,0.59899 0.69636,0.59899 0.0133,2.06221 0.0133,2.06222 -0.37397,0.23673 c -0.46458,0.29408 -0.59242,0.28422 -2.22606,-0.17165 z m -178.76468,-1.08282 c -0.38506,-0.0649 -0.90953,-0.34945 -1.16549,-0.63229 -0.25596,-0.28283 -0.75375,-0.51425 -1.10619,-0.51425 -0.85851,0 -2.17568,-1.3532 -2.23365,-2.29475 -0.0253,-0.41137 -0.0822,-1.10514 -0.12645,-1.5417 -0.13926,-1.37479 -0.38467,-7.02424 -0.43785,-10.07959 l -0.0511,-2.93584 0.36718,-0.44248 c 0.20195,-0.24337 0.77619,-0.63657 1.2761,-0.8738 l 0.90892,-0.43131 2.87883,0.16472 c 1.58336,0.0906 3.42843,0.3031 4.10016,0.47225 l 1.22132,0.30753 1.89979,1.72801 c 1.04488,0.9504 2.00846,1.97597 2.14128,2.27905 0.13282,0.30307 0.51516,0.96776 0.84966,1.47708 0.33699,0.51313 0.75209,1.76605 0.93095,2.80994 l 0.32279,1.8839 -0.60363,1.65551 c -0.99973,2.74185 -1.78574,3.61427 -5.33781,5.92463 -1.3153,0.8555 -4.0494,1.34442 -5.8348,1.04339 z m 3.06022,-4.81653 c 0.0783,-0.12672 0.49897,-0.30172 0.93477,-0.38888 l 0.79237,-0.15847 0.39026,-0.93404 c 0.21465,-0.51372 0.50248,-0.93403 0.63962,-0.93403 0.30189,0 0.96369,-1.62192 1.20472,-2.95252 l 0.17538,-0.96814 -0.45392,-1.14853 c -0.60839,-1.53935 -2.09861,-3.08861 -3.16299,-3.28829 -0.46813,-0.0878 -1.12011,-0.44597 -1.44884,-0.79589 -0.6074,-0.64654 -1.91776,-0.86915 -2.22167,-0.37742 -0.15792,0.25553 -0.17568,5.145 -0.0327,9.00313 0.0405,1.09223 0.21661,2.25309 0.3914,2.57968 l 0.31779,0.59381 h 1.1657 c 0.64114,0 1.22978,-0.10368 1.3081,-0.23041 z m 12.5331,4.1838 c -0.41114,-0.23969 -0.99747,-1.74256 -1.00112,-2.56608 -8.2e-4,-0.18286 0.30352,-0.59767 0.67629,-0.92179 l 0.67778,-0.58932 -0.16755,-1.21818 -0.16754,-1.21818 0.6804,-0.44581 0.68039,-0.44581 v -0.65536 c 0,-0.39491 -0.15186,-0.65536 -0.38212,-0.65536 -0.21017,0 -0.698,-0.2717 -1.08406,-0.60378 l -0.70194,-0.60379 0.29221,-1.08518 c 0.16071,-0.59686 0.47779,-1.23921 0.7046,-1.42745 l 0.4124,-0.34225 0.93145,0.33681 0.93146,0.33682 0.44365,-0.4884 c 0.244,-0.26862 0.67248,-1.02418 0.95216,-1.67903 0.27969,-0.65484 0.70105,-1.42875 0.93636,-1.71979 0.23531,-0.29104 0.65223,-0.96667 0.9265,-1.5014 0.55534,-1.08271 1.3283,-1.54162 2.59509,-1.54069 l 0.84745,6.2e-4 0.92604,0.79251 c 0.50932,0.43588 1.16208,0.79279 1.45057,0.79313 0.30378,3.6e-4 1.16667,0.69656 2.05035,1.65427 l 1.52582,1.65364 1.7e-4,0.72038 c 1.8e-4,0.7346 1.19835,3.53693 1.62502,3.80062 0.12939,0.08 0.40965,0.52421 0.6228,0.9872 0.21315,0.46299 0.53877,1.07542 0.7236,1.36095 1.18575,1.8318 1.57959,2.70281 1.57959,3.49341 0,1.13648 -0.31988,1.51367 -1.61202,1.9008 l -1.03622,0.31046 -0.65322,-0.24835 c -0.35927,-0.1366 -0.92418,-0.68679 -1.25537,-1.22266 -0.33118,-0.53586 -0.89264,-1.28775 -1.24769,-1.67085 l -0.64554,-0.69655 0.15899,-0.99427 0.15899,-0.99426 h -0.67773 c -0.37275,0 -1.03769,-0.18615 -1.47764,-0.41366 l -0.79993,-0.41365 -0.79221,0.17399 -0.7922,0.174 -0.50165,-0.45398 -0.50165,-0.45399 -1.00194,0.39403 -1.00193,0.39404 -0.59258,1.1595 c -0.32592,0.63773 -0.59381,1.34803 -0.59531,1.57843 -0.002,0.23041 -0.0843,0.50052 -0.18407,0.60026 -0.24871,0.24871 -0.86813,2.06403 -0.87302,2.55856 -0.002,0.2215 -0.36984,0.84658 -0.81699,1.38906 l -0.81302,0.98632 -0.84063,-0.008 c -0.46235,-0.004 -1.0443,-0.12678 -1.29324,-0.2719 z m 10.37448,-12.39975 c 0,-0.44553 -0.28961,-1.11763 -0.68307,-1.58524 l -0.68308,-0.81179 -0.47306,0.25317 c -0.26018,0.13925 -0.68237,0.69426 -0.93819,1.23337 l -0.46513,0.98019 0.48121,0.35187 c 0.26467,0.19353 0.99424,0.35187 1.62127,0.35187 h 1.14005 z"
       id="path1" /></g></svg>
